<svg id="Capa_1" enable-background="new 0 0 512 512" height="512" viewBox="0 0 512 512" width="512" xmlns="http://www.w3.org/2000/svg"><g><path d="m206.606 215.393c-5.857-5.857-15.355-5.857-21.213 0l-30 30c-5.858 5.858-5.858 15.355 0 21.213l30 30c5.858 5.858 15.355 5.858 21.213 0s5.858-15.355 0-21.213l-19.393-19.393 19.393-19.393c5.859-5.858 5.859-15.356 0-21.214z"/><path d="m356.606 245.393-30-30c-5.857-5.857-15.355-5.857-21.213 0-5.858 5.858-5.858 15.355 0 21.213l19.394 19.394-19.393 19.393c-5.858 5.858-5.858 15.355 0 21.213s15.355 5.858 21.213 0l30-30c5.858-5.857 5.858-15.355-.001-21.213z"/><path d="m274.638 181.448c-8.026-2.006-16.181 2.876-18.189 10.914l-30 120c-2.01 8.037 2.877 16.181 10.914 18.19 8.004 2.001 16.173-2.845 18.189-10.914l30-120c2.01-8.037-2.877-16.181-10.914-18.19z"/><path d="m512 376c0-8.284-6.716-15-15-15h-15v-255c0-24.813-20.187-45-45-45h-362c-24.813 0-45 20.187-45 45v255h-15c-8.284 0-15 6.716-15 15 0 41.355 33.645 75 75 75h362c41.355 0 75-33.645 75-75zm-452-270c0-8.271 6.729-15 15-15h362c8.271 0 15 6.729 15 15v255h-30v-225c0-8.284-6.716-15-15-15h-302c-8.284 0-15 6.716-15 15v225h-30zm60 255v-210h272v210zm317 60h-362c-19.557 0-36.239-12.539-42.43-30h446.86c-6.191 17.461-22.873 30-42.43 30z"/></g></svg>