<svg height="200" viewBox="0 0 64 64" width="512" xmlns="http://www.w3.org/2000/svg" xmlns:xlink="http://www.w3.org/1999/xlink"><linearGradient id="New_Gradient_Swatch_1" gradientUnits="userSpaceOnUse" x1="33" x2="33" y1="-1.137" y2="62.619"><stop offset="0" stop-color="#fff33b"/><stop offset=".014" stop-color="#fee72e"/><stop offset=".042" stop-color="#fed51b"/><stop offset=".07" stop-color="#fdca10"/><stop offset=".1" stop-color="#fdc70c"/><stop offset=".4" stop-color="#f3903f"/><stop offset=".8" stop-color="#ed683c"/><stop offset="1" stop-color="#e93e3a"/></linearGradient><linearGradient id="New_Gradient_Swatch_1-4" x1="32" x2="32" xlink:href="#New_Gradient_Swatch_1" y1="-1.137" y2="62.619"/><linearGradient id="New_Gradient_Swatch_1-5" x1="31" x2="31" xlink:href="#New_Gradient_Swatch_1" y1="-1.137" y2="62.619"/><g id="Books"><g fill="url(#New_Gradient_Swatch_1)"><path d="m10 45h46v2h-46z"/><path d="m14 41h38v2h-38z"/><path d="m14 49h38v2h-38z"/></g><path d="m61 31h-6.548a14.989 14.989 0 0 0 -7.452-28h-44a1 1 0 0 0 -1 1v4a1 1 0 0 0 1 1h1v18h-1a1 1 0 0 0 -1 1v4a1 1 0 0 0 1 1h6.548a14.989 14.989 0 0 0 7.452 28h44a1 1 0 0 0 1-1v-4a1 1 0 0 0 -1-1h-1v-18h1a1 1 0 0 0 1-1v-4a1 1 0 0 0 -1-1zm-55-22h41a9 9 0 0 1 0 18h-41zm-2 22v-2h43a11 11 0 0 0 0-22h-43v-2h43a13 13 0 0 1 0 26zm54 24h-41a9 9 0 0 1 0-18h41zm2-20h-43a11 11 0 0 0 0 22h43v2h-43a13 13 0 0 1 0-26h43z" fill="url(#New_Gradient_Swatch_1-4)"/><path d="m8 17h46v2h-46z" fill="url(#New_Gradient_Swatch_1-5)"/><path d="m12 13h38v2h-38z" fill="url(#New_Gradient_Swatch_1-5)"/><path d="m12 21h38v2h-38z" fill="url(#New_Gradient_Swatch_1-5)"/></g></svg>