<svg height="50pt" viewBox="0 0 349.14324 349" xmlns="http://www.w3.org/2000/svg"><path d="m170.484375 79.601562 4.078125-4.078124c38.246094-38.253907 87.871094-63.066407 141.421875-70.710938l33.160156-4.7421875-4.730469 33.1601565c-7.652343 53.554687-32.46875 103.179687-70.722656 141.429687l-4.777344 4.78125-116.671874 116.671875-10.96875-10.972656-77.109376-77.109375-11.0625-11.058594 14.691407-14.691406zm0 0" fill="#00efd1"/><g fill="#00acea"><path d="m269.34375 179.871094c21.667969 59.859375 2.078125 109.851562-46.019531 157.949218l-56.390625-56.398437 101.980468-101.980469zm0 0"/><path d="m170.484375 79.601562-102.691406 102.679688-56.320313-56.308594c48.8125-48.820312 98.460938-69.449218 159.011719-46.371094zm0 0"/><path d="m141.273438 285.140625-.058594.050781-37.839844 39.210938c-1.863281 1.929687-4.421875 3.027344-7.105469 3.054687-2.679687.023438-5.257812-1.03125-7.15625-2.925781l-64.351562-64.351562c-1.894531-1.894532-2.953125-4.476563-2.925781-7.160157.023437-2.683593 1.125-5.246093 3.058593-7.109375l39.207031-37.828125.0625-.050781zm0 0"/></g><path d="m82.273438 317.691406-1.410157 1.410156c-2.371093 3.222657-4.949219 6.289063-7.71875 9.179688-22.761719 22.769531-59.480469 23.5-68.292969 17.628906l-1.839843-1.839844c-5.867188-8.808593-4.769531-45.160156 17.992187-67.929687 3.097656-3.085937 6.554688-5.792969 10.289063-8.070313l.679687-.679687zm0 0" fill="#fedb41"/><path d="m240.027344 144.570312c0 19.5-15.808594 35.308594-35.308594 35.308594s-35.308594-15.808594-35.308594-35.308594 15.808594-35.308593 35.308594-35.308593 35.308594 15.808593 35.308594 35.308593zm0 0" fill="#fedb41"/></svg>